<svg id="Calque_1" data-name="Calque 1" xmlns="http://www.w3.org/2000/svg" viewBox="0 0 844.1 450.63"><defs><style>.cls-1{fill:#333;}</style></defs><path class="cls-1" d="M140.68,339.2H95.52l6.72-33H234l-6.72,33h-45l-22.9,114.07H117.79Z" transform="translate(-95.52 -295.5)"/><path class="cls-1" d="M238.37,448.75a48.42,48.42,0,0,1-20.8-18.17q-7.35-11.76-7.35-27.31a63.53,63.53,0,0,1,9-33.61,64.18,64.18,0,0,1,25-23.53q16-8.61,35.93-8.62,18.06,0,31.51,6.41A48.8,48.8,0,0,1,332.49,362q7.35,11.65,7.35,27.2a63.78,63.78,0,0,1-33.93,57.36q-15.86,8.61-36,8.61Q251.82,455.16,238.37,448.75Zm53.36-34.56q7.57-8.82,7.57-22.89,0-10.1-5.68-16t-15.75-5.88a24.54,24.54,0,0,0-19.54,8.82q-7.56,8.82-7.56,23.11,0,10.08,5.67,15.86T272.2,423A24.51,24.51,0,0,0,291.73,414.19Z" transform="translate(-95.52 -295.5)"/><path class="cls-1" d="M498.45,297.39,467.36,453.27H429.55l2.31-11.13a46.09,46.09,0,0,1-33,13,47.38,47.38,0,0,1-23.63-6.2,46.5,46.5,0,0,1-17.75-18q-6.74-11.76-6.72-27.73a68.18,68.18,0,0,1,8.29-33.51,62.07,62.07,0,0,1,22.59-23.63,59.11,59.11,0,0,1,31.09-8.62q24.36,0,34.66,15.13l11.14-55.25Zm-66.17,116.8q7.56-8.82,7.56-22.89,0-10.1-5.67-16t-15.76-5.88a24.57,24.57,0,0,0-19.54,8.82q-7.56,8.82-7.56,23.11,0,10.08,5.67,15.86T412.74,423A24.54,24.54,0,0,0,432.28,414.19Z" transform="translate(-95.52 -295.5)"/><path class="cls-1" d="M636.06,339.41,613.37,453.27H575.55l2.31-10.71q-13.65,12.6-33,12.6a47.38,47.38,0,0,1-23.63-6.2,46.46,46.46,0,0,1-17.76-18q-6.72-11.76-6.72-27.73a68.18,68.18,0,0,1,8.3-33.51,62.32,62.32,0,0,1,22.48-23.63,58.59,58.59,0,0,1,31-8.62q24.78,0,34.87,15.55l2.73-13.65Zm-57.78,74.78q7.58-8.82,7.57-22.89,0-10.1-5.78-16t-15.86-5.88a24.54,24.54,0,0,0-19.54,8.82q-7.56,8.82-7.56,23.11,0,10.08,5.77,15.86T558.75,423A24.51,24.51,0,0,0,578.28,414.19Z" transform="translate(-95.52 -295.5)"/><path class="cls-1" d="M781.64,339.41l-72.9,118.9q-9,14.51-17.33,22.59a50.83,50.83,0,0,1-17.54,11.55,64.95,64.95,0,0,1-39.6.74q-8.92-2.74-14.18-7.15l17.85-28.15a26.24,26.24,0,0,0,17.65,6.51,16.81,16.81,0,0,0,9.24-2.41,28.14,28.14,0,0,0,7.57-7.88l-25.84-114.7h39.7l14.29,69.95,42-69.95Z" transform="translate(-95.52 -295.5)"/><path class="cls-1" d="M833.21,301.49q6.19,6,6.2,15.86a25.27,25.27,0,0,1-1.89,9.66A75.71,75.71,0,0,1,831,338.77l-22.9,35.09h-25l17-35.3a20.07,20.07,0,0,1-6.52-7.45,22.06,22.06,0,0,1-2.31-10.19q0-11.35,7.46-18.38a25.51,25.51,0,0,1,18.17-7Q827,295.5,833.21,301.49Z" transform="translate(-95.52 -295.5)"/><path class="cls-1" d="M843.51,452q-13.56-3.15-21.12-8l14.5-27.95a67.25,67.25,0,0,0,18.49,7.67,81.87,81.87,0,0,0,21,2.84q18.29,0,18.28-8.19,0-3.36-4.31-4.94a79,79,0,0,0-13.76-3,165.63,165.63,0,0,1-20.69-4.93,34.17,34.17,0,0,1-14.18-8.93q-6.09-6.3-6.09-17.65,0-19.74,16.91-30.57t43.8-10.82a112.72,112.72,0,0,1,23.53,2.42,82.84,82.84,0,0,1,19.75,6.62l-14.08,27.94q-14.28-8.61-33.82-8.61-9.26,0-13.76,2.41t-4.52,6.2q0,3.36,4.31,4.94a101.19,101.19,0,0,0,14.18,3.46,139.3,139.3,0,0,1,20.27,4.83,34.44,34.44,0,0,1,14.08,9q6,6.3,6,17.22,0,19.75-17,30.47t-43.49,10.71A124.36,124.36,0,0,1,843.51,452Z" transform="translate(-95.52 -295.5)"/><path class="cls-1" d="M125.67,703.9q-16.4-4.41-26.68-11.35l16.38-31.09a90.92,90.92,0,0,0,23.74,10.82A89.74,89.74,0,0,0,164.32,676q12,0,18.59-3.47t6.62-9.56q0-5.25-6-8.19T165,648.43a195.67,195.67,0,0,1-23.74-7.66,42.41,42.41,0,0,1-16.28-11.87q-6.83-8-6.83-21a45.76,45.76,0,0,1,8.62-27.63q8.61-11.87,24.58-18.38t37.39-6.51a126.55,126.55,0,0,1,29.41,3.26A79.73,79.73,0,0,1,241.63,568l-15.12,30.89a69.39,69.39,0,0,0-19-8.3,80.69,80.69,0,0,0-21.32-2.84q-12.4,0-19.43,4t-7,10.3q0,5.46,6.09,8.4t18.91,6.3a182.2,182.2,0,0,1,23.63,7.36,41.74,41.74,0,0,1,16.08,11.55q6.72,7.77,6.72,20.38a45.09,45.09,0,0,1-8.72,27.41q-8.72,11.88-24.79,18.39t-37.29,6.51A132.84,132.84,0,0,1,125.67,703.9Z" transform="translate(-95.52 -295.5)"/><path class="cls-1" d="M354.34,595.81a46.57,46.57,0,0,1,17.75,18q6.72,11.78,6.72,27.52a68.45,68.45,0,0,1-8.3,33.72A62.29,62.29,0,0,1,348,698.64a58.55,58.55,0,0,1-31,8.62q-24.8,0-34.87-15.55l-10.93,54.41H231.34L262.22,591.5H300l-2.31,10.72q13.65-12.62,33-12.61A47.49,47.49,0,0,1,354.34,595.81Zm-23.43,70.48q7.57-8.82,7.57-22.9,0-10.08-5.78-16t-15.86-5.89a24.56,24.56,0,0,0-19.54,8.83q-7.56,8.82-7.56,23.11,0,10.08,5.78,15.86t15.86,5.78A24.54,24.54,0,0,0,330.91,666.29Z" transform="translate(-95.52 -295.5)"/><path class="cls-1" d="M512,658.31H428.39q2.1,18.48,25.84,18.49a47.57,47.57,0,0,0,14.71-2.31,39.2,39.2,0,0,0,12.81-6.94l16.6,25q-20,14.72-48.53,14.71-18.07,0-31.83-6.41a49,49,0,0,1-21.22-18.07q-7.45-11.65-7.46-27.41A66,66,0,0,1,398,621.65a61.6,61.6,0,0,1,24.37-23.53q15.64-8.5,35.82-8.51,17,0,29.73,6.2a45.46,45.46,0,0,1,19.54,17.54q6.82,11.34,6.82,26.26A88.18,88.18,0,0,1,512,658.31Zm-71.85-35.19a28.93,28.93,0,0,0-9.45,14.18h46.85q.21-9-5.67-14.18T456.33,618Q446.67,618,440.15,623.12Z" transform="translate(-95.52 -295.5)"/><path class="cls-1" d="M551.6,700.85a49,49,0,0,1-21-18.17q-7.46-11.76-7.46-27.31a63,63,0,0,1,34.25-57.14q16.17-8.62,36.34-8.62,19.34,0,33.41,8.09a48.19,48.19,0,0,1,20.58,22.79l-34,16.18q-6.3-15.12-22.06-15.13a25.72,25.72,0,0,0-20.06,8.83q-7.87,8.82-7.88,22.69,0,10.08,5.78,16.07t16.49,6A27.21,27.21,0,0,0,600,671.54q6.09-3.57,10.51-11.34l29.2,17.65a56.78,56.78,0,0,1-23,21.64q-14.82,7.77-33.51,7.77Q565.15,707.26,551.6,700.85Z" transform="translate(-95.52 -295.5)"/><path class="cls-1" d="M668.72,591.5h39.7L685.74,705.37H646Zm8.82-18.27a18.2,18.2,0,0,1-6.3-14.08,21,21,0,0,1,7-16.28q7-6.4,18.59-6.41,10.5,0,16.81,5.36a17.24,17.24,0,0,1,6.3,13.76,21.72,21.72,0,0,1-7.14,16.81q-7.15,6.51-18.7,6.51Q683.85,578.9,677.54,573.23Z" transform="translate(-95.52 -295.5)"/><path class="cls-1" d="M854.64,591.5,832,705.37H794.14l2.31-10.72q-13.66,12.61-33,12.61a47.48,47.48,0,0,1-23.63-6.2,46.57,46.57,0,0,1-17.75-18q-6.72-11.76-6.72-27.73a68.15,68.15,0,0,1,8.29-33.51,62.47,62.47,0,0,1,22.48-23.63,58.53,58.53,0,0,1,31-8.62q24.78,0,34.87,15.55l2.74-13.66Zm-57.77,74.79q7.56-8.82,7.56-22.9,0-10.08-5.78-16t-15.86-5.89a24.57,24.57,0,0,0-19.54,8.83q-7.56,8.82-7.56,23.11,0,10.08,5.78,15.86t15.86,5.78A24.56,24.56,0,0,0,796.87,666.29Z" transform="translate(-95.52 -295.5)"/><path class="cls-1" d="M888.67,549.49h39.92L897.5,705.37H857.58Z" transform="translate(-95.52 -295.5)"/></svg>